<svg width="18" height="18" viewBox="0 0 18 18" fill="none" xmlns="http://www.w3.org/2000/svg">
<path d="M10.0542 17.5234C9.65576 17.7559 9.33203 17.8638 9 17.8638C8.65967 17.8638 8.34424 17.7559 7.9458 17.5234L1.44629 13.7466C0.773926 13.3564 0.516602 13.0576 0.516602 12.6011C0.516602 12.1445 0.773926 11.8457 1.44629 11.4473L5.33105 9.19775L1.44629 6.94824C0.773926 6.5498 0.516602 6.25098 0.516602 5.79443C0.516602 5.33789 0.773926 5.03906 1.44629 4.64893L7.9458 0.87207C8.34424 0.639648 8.65967 0.531738 9 0.531738C9.33203 0.531738 9.65576 0.639648 10.0542 0.87207L16.5454 4.64893C17.2178 5.03906 17.4834 5.33789 17.4834 5.79443C17.4834 6.25098 17.2178 6.5498 16.5454 6.94824L12.6689 9.19775L16.5454 11.4473C17.2178 11.8457 17.4834 12.1445 17.4834 12.6011C17.4834 13.0576 17.2178 13.3564 16.5454 13.7466L10.0542 17.5234ZM9 11.0571C8.65967 11.0571 8.34424 10.9492 7.9458 10.7168L6.70898 10.0029L2.30957 12.5181C2.27637 12.5347 2.25146 12.5596 2.25146 12.6011C2.25146 12.6426 2.27637 12.6592 2.30957 12.6841L8.62646 16.2949C8.76758 16.3696 8.88379 16.4111 9 16.4111C9.11621 16.4111 9.23242 16.3696 9.36523 16.2949L15.6821 12.6841C15.7236 12.6592 15.7485 12.6426 15.7485 12.6011C15.7485 12.5596 15.7236 12.5347 15.6821 12.5181L11.2827 10.0029L10.0542 10.7168C9.65576 10.9492 9.33203 11.0571 9 11.0571Z" fill="url(#paint0_linear_44_223)" style="mix-blend-mode:overlay"/>
<defs>
<linearGradient id="paint0_linear_44_223" x1="9" y1="-1" x2="9" y2="19" gradientUnits="userSpaceOnUse">
<stop stop-color="white" stop-opacity="0.8"/>
<stop offset="1" stop-color="white" stop-opacity="0.3"/>
</linearGradient>
</defs>
</svg>
