<svg width="17" height="20" viewBox="0 0 17 20" fill="none" xmlns="http://www.w3.org/2000/svg">
<path d="M1.18701 15.6597C0.672363 15.6597 0.332031 15.1699 0.332031 14.4561L0.332031 6.51221C0.332031 5.56592 0.42334 5.4165 1.23682 4.94336L8.20117 0.942383C8.4502 0.792969 8.68262 0.734863 8.89844 0.734863C9.36328 0.734863 9.72021 1.0752 9.68701 1.62305L1.99219 6.05566C1.73486 6.19678 1.67676 6.31299 1.67676 6.61182L1.67676 15.4937C1.51074 15.6099 1.33643 15.6597 1.18701 15.6597ZM4.49902 17.5771C4.00098 17.5771 3.63574 17.0874 3.63574 16.3735L3.63574 8.42139C3.63574 7.4917 3.73535 7.31738 4.54883 6.85254L11.5132 2.84326C11.7622 2.71045 11.9946 2.64404 12.2021 2.64404C12.6919 2.64404 13.0322 2.99268 13.0073 3.53223L5.3125 7.97314C5.03857 8.12256 4.98877 8.20557 4.98877 8.5293L4.98877 17.4111C4.82275 17.5273 4.65674 17.5771 4.49902 17.5771ZM8.06006 19.6025C7.4292 19.6025 7.09717 19.0713 7.09717 18.1084L7.09717 10.5879C7.09717 9.68311 7.37109 9.21826 8.15137 8.76172L14.6758 5.00146C15.0659 4.77734 15.4062 4.66943 15.6885 4.66943C16.311 4.66943 16.6597 5.17578 16.6597 6.17188L16.6597 13.6924C16.6597 14.6221 16.3857 15.0786 15.6221 15.5186L9.11426 19.2539C8.69922 19.4863 8.35059 19.6025 8.06006 19.6025Z" fill="url(#paint0_linear_44_216)" style="mix-blend-mode:overlay"/>
<defs>
<linearGradient id="paint0_linear_44_216" x1="8.5" y1="2.17015e-08" x2="8.5" y2="20" gradientUnits="userSpaceOnUse">
<stop stop-color="white" stop-opacity="0.8"/>
<stop offset="1" stop-color="white" stop-opacity="0.3"/>
</linearGradient>
</defs>
</svg>
