<svg width="18" height="18" viewBox="0 0 18 18" fill="none" xmlns="http://www.w3.org/2000/svg">
<path d="M9 17.4736C4.37646 17.4736 0.533203 13.6304 0.533203 9.00684C0.533203 4.375 4.36816 0.540039 8.9917 0.540039C13.6235 0.540039 17.4668 4.375 17.4668 9.00684C17.4668 13.6304 13.6318 17.4736 9 17.4736ZM9 16.0625C12.918 16.0625 16.0557 12.9248 16.0557 9.00684C16.0557 5.08887 12.9097 1.95117 8.9917 1.95117C5.07373 1.95117 1.95264 5.08887 1.95264 9.00684C1.95264 12.9248 5.08203 16.0625 9 16.0625ZM6.10303 11.5635C5.70459 11.5635 5.53857 11.0903 5.75439 10.7334L8.55176 6.00195C8.75098 5.66162 9.23242 5.64502 9.44824 6.00195L12.229 10.7334C12.4614 11.1235 12.2871 11.5635 11.8887 11.5635L6.10303 11.5635Z" fill="url(#paint0_linear_44_202)" style="mix-blend-mode:overlay"/>
<defs>
<linearGradient id="paint0_linear_44_202" x1="9" y1="-1" x2="9" y2="19" gradientUnits="userSpaceOnUse">
<stop stop-color="white" stop-opacity="0.8"/>
<stop offset="1" stop-color="white" stop-opacity="0.3"/>
</linearGradient>
</defs>
</svg>
