<svg width="20" height="16" viewBox="0 0 20 16" fill="none" xmlns="http://www.w3.org/2000/svg">
<path d="M10 15.4609C9.44385 15.4609 9.14502 15.1704 9.14502 14.6143L9.14502 1.40771C9.14502 0.851563 9.44385 0.561035 10 0.561035C10.5562 0.561035 10.855 0.851563 10.855 1.40771L10.855 14.6143C10.855 15.1704 10.5562 15.4609 10 15.4609ZM1.33398 12.1572C0.769531 12.1572 0.479004 11.8667 0.479004 11.3105L0.479004 4.71143C0.479004 4.15527 0.769531 3.86475 1.33398 3.86475C1.89014 3.86475 2.18066 4.15527 2.18066 4.71143L2.18066 11.3105C2.18066 11.8667 1.89014 12.1572 1.33398 12.1572ZM18.666 12.1572C18.1099 12.1572 17.8193 11.8667 17.8193 11.3105L17.8193 4.71143C17.8193 4.15527 18.1099 3.86475 18.666 3.86475C19.2305 3.86475 19.521 4.15527 19.521 4.71143L19.521 11.3105C19.521 11.8667 19.2305 12.1572 18.666 12.1572ZM5.66699 10.0654C5.11084 10.0654 4.82031 9.7749 4.82031 9.21045L4.82031 6.81152C4.82031 6.24707 5.11084 5.95654 5.66699 5.95654C6.22314 5.95654 6.51367 6.24707 6.51367 6.81152L6.51367 9.21045C6.51367 9.7749 6.22314 10.0654 5.66699 10.0654ZM14.333 10.0654C13.7769 10.0654 13.4863 9.7749 13.4863 9.21045L13.4863 6.81152C13.4863 6.24707 13.7769 5.95654 14.333 5.95654C14.8892 5.95654 15.1797 6.24707 15.1797 6.81152L15.1797 9.21045C15.1797 9.7749 14.8892 10.0654 14.333 10.0654Z" fill="url(#paint0_linear_44_209)" style="mix-blend-mode:overlay"/>
<defs>
<linearGradient id="paint0_linear_44_209" x1="10" y1="-2" x2="10" y2="18" gradientUnits="userSpaceOnUse">
<stop stop-color="white" stop-opacity="0.8"/>
<stop offset="1" stop-color="white" stop-opacity="0.3"/>
</linearGradient>
</defs>
</svg>
