<svg width="36" height="36" viewBox="0 0 36 36" fill="none" xmlns="http://www.w3.org/2000/svg">
<path d="M18 34C26.8365 34 34 26.8365 34 18C34 9.16344 26.8365 2 18 2C9.16344 2 2 9.16344 2 18C2 26.8365 9.16344 34 18 34Z" stroke="black" stroke-width="4" stroke-linecap="round" stroke-linejoin="round"/>
<path d="M18.9578 17.7218C23.0141 17.7218 23.0141 24.4 18.9578 24.4C16.6696 24.4 14 24.4 14 24.4V17.7218M18.9578 17.7218C16.6696 17.7218 14 17.7218 14 17.7218M18.9578 17.7218C23.0141 17.7218 23.0141 11.6 18.9578 11.6C17.1549 11.6 14 11.6 14 11.6V17.7218" stroke="black" stroke-width="4" stroke-linecap="round" stroke-linejoin="round"/>
</svg>
