<svg width="35" height="36" viewBox="0 0 35 36" fill="none" xmlns="http://www.w3.org/2000/svg">
<path d="M32.3158 2L30.6316 3.68421" stroke="black" stroke-width="4" stroke-linecap="round" stroke-linejoin="round"/>
<path d="M2 2L3.68421 3.68421" stroke="black" stroke-width="4" stroke-linecap="round" stroke-linejoin="round"/>
<path d="M32.3158 25.579L30.6316 23.8947" stroke="black" stroke-width="4" stroke-linecap="round" stroke-linejoin="round"/>
<path d="M2 25.579L3.68421 23.8947" stroke="black" stroke-width="4" stroke-linecap="round" stroke-linejoin="round"/>
<path d="M12.1053 28.9474H22.2105" stroke="black" stroke-width="4" stroke-linecap="round" stroke-linejoin="round"/>
<path d="M13.7895 34H20.5263" stroke="black" stroke-width="4" stroke-linecap="round" stroke-linejoin="round"/>
<path d="M17.1575 3.6842C10.4205 3.6842 6.97154 6.9689 7.05237 12.1053C7.09176 14.6095 7.89422 16.3158 9.57868 18C11.2631 19.6842 12.1053 20.5263 12.105 23.8947H22.2102C22.2105 20.5265 23.0526 19.6842 24.7363 18.0002C26.4204 16.316 27.2236 14.6095 27.2628 12.1053C27.3437 6.9689 23.8947 3.6842 17.1575 3.6842Z" stroke="black" stroke-width="4" stroke-linecap="round" stroke-linejoin="round"/>
</svg>
