<svg width="40" height="32" viewBox="0 0 40 32" fill="none" xmlns="http://www.w3.org/2000/svg">
<path d="M3.64178 28.8805C1.38879 26.4209 0.179169 23.6622 0.179169 19.1903C0.179169 11.3213 5.55354 4.26836 13.369 0.78125L15.3223 3.87941C8.02745 7.93534 6.60129 13.1986 6.03257 16.5171C7.20719 15.8921 8.74491 15.674 10.252 15.8179C14.198 16.1933 17.3085 19.5231 17.3085 23.6622C17.3085 25.7492 16.5019 27.7507 15.0661 29.2265C13.6304 30.7022 11.6831 31.5313 9.65267 31.5313C7.30562 31.5313 5.06138 30.4296 3.64178 28.8805V28.8805ZM25.5155 28.8805C23.2625 26.4209 22.0529 23.6622 22.0529 19.1903C22.0529 11.3213 27.4272 4.26836 35.2427 0.78125L37.196 3.87941C29.9012 7.93534 28.475 13.1986 27.9063 16.5171C29.0809 15.8921 30.6186 15.674 32.1257 15.8179C36.0717 16.1933 39.1822 19.5231 39.1822 23.6622C39.1822 25.7492 38.3756 27.7507 36.9398 29.2265C35.5041 30.7022 33.5568 31.5313 31.5264 31.5313C29.1793 31.5313 26.9351 30.4296 25.5155 28.8805V28.8805Z" fill="#EEEEEE"/>
</svg>
