<svg width="31" height="30" viewBox="0 0 31 30" fill="none" xmlns="http://www.w3.org/2000/svg">
<path d="M30.2812 15C30.2812 23.0035 23.7276 29.5 15.6328 29.5C7.53805 29.5 0.984375 23.0035 0.984375 15C0.984375 6.9965 7.53805 0.5 15.6328 0.5C23.7276 0.5 30.2812 6.9965 30.2812 15Z" stroke="#CCCCCC"/>
<path d="M11.4809 10.4451C11.4807 10.8282 11.3268 11.1955 11.0531 11.4662C10.7794 11.7369 10.4083 11.8889 10.0215 11.8887C9.63461 11.8885 9.26367 11.7362 8.99025 11.4652C8.71684 11.1942 8.56334 10.8267 8.56354 10.4436C8.56373 10.0606 8.7176 9.69327 8.99128 9.42253C9.26497 9.1518 9.63606 8.99981 10.0229 9C10.4098 9.00019 10.7807 9.15255 11.0541 9.42356C11.3276 9.69456 11.481 10.062 11.4809 10.4451ZM11.5246 12.9583H8.6073V22H11.5246V12.9583ZM16.134 12.9583H13.2312V22H16.1048V17.2553C16.1048 14.6121 19.5837 14.3665 19.5837 17.2553V22H22.4645V16.2731C22.4645 11.8172 17.3155 11.9833 16.1048 14.1715L16.134 12.9583Z" fill="#AAAAAA"/>
</svg>
