<svg width="31" height="30" viewBox="0 0 31 30" fill="none" xmlns="http://www.w3.org/2000/svg">
<path d="M30.2917 15C30.2917 23.0035 23.738 29.5 15.6432 29.5C7.54846 29.5 0.994781 23.0035 0.994781 15C0.994781 6.9965 7.54846 0.5 15.6432 0.5C23.738 0.5 30.2917 6.9965 30.2917 15Z" stroke="#CCCCCC"/>
<path d="M23.7104 10.5432C23.1056 10.8081 22.4643 10.9821 21.8077 11.0594C22.4998 10.6495 23.0178 10.0044 23.2652 9.2443C22.6157 9.62708 21.9035 9.89534 21.1613 10.0404C20.6627 9.51223 20.0018 9.16191 19.2815 9.04395C18.5611 8.926 17.8215 9.04702 17.1778 9.3882C16.534 9.72937 16.0221 10.2716 15.7217 10.9306C15.4212 11.5895 15.3491 12.3283 15.5164 13.0321C14.1992 12.9667 12.9105 12.6278 11.7341 12.0372C10.5577 11.4467 9.51994 10.6178 8.68809 9.60433C8.39364 10.1051 8.2389 10.6744 8.23973 11.2539C8.23973 12.3913 8.82434 13.3961 9.71313 13.9843C9.18715 13.968 8.67274 13.8273 8.2128 13.5741V13.6149C8.21295 14.3724 8.47767 15.1065 8.96205 15.6928C9.44643 16.2791 10.1207 16.6814 10.8705 16.8317C10.3822 16.9627 9.87021 16.982 9.37329 16.8881C9.58469 17.5402 9.99672 18.1104 10.5517 18.519C11.1067 18.9276 11.7768 19.1541 12.4682 19.1668C11.781 19.7012 10.9942 20.0963 10.1527 20.3294C9.31118 20.5625 8.43153 20.6291 7.56403 20.5253C9.07838 21.4897 10.8412 22.0017 12.6417 22C18.7357 22 22.0683 17.0011 22.0683 12.6658C22.0683 12.5246 22.0643 12.3818 22.058 12.2422C22.7066 11.778 23.2665 11.2029 23.7112 10.544L23.7104 10.5432Z" fill="#AAAAAA"/>
</svg>
