<svg width="32" height="30" viewBox="0 0 32 30" fill="none" xmlns="http://www.w3.org/2000/svg">
<path d="M30.7865 15C30.7865 23.0035 24.2328 29.5 16.138 29.5C8.04327 29.5 1.48959 23.0035 1.48959 15C1.48959 6.9965 8.04327 0.5 16.138 0.5C24.2328 0.5 30.7865 6.9965 30.7865 15Z" stroke="#CCCCCC"/>
<path d="M16.643 13.55C16.1207 13.55 15.6198 13.7554 15.2505 14.1211C14.8812 14.4868 14.6737 14.9828 14.6737 15.5C14.6737 16.0172 14.8812 16.5132 15.2505 16.8789C15.6198 17.2446 16.1207 17.45 16.643 17.45C17.1653 17.45 17.6662 17.2446 18.0355 16.8789C18.4048 16.5132 18.6123 16.0172 18.6123 15.5C18.6123 14.9828 18.4048 14.4868 18.0355 14.1211C17.6662 13.7554 17.1653 13.55 16.643 13.55ZM16.643 12.25C17.5135 12.25 18.3483 12.5924 18.9638 13.2019C19.5794 13.8114 19.9252 14.638 19.9252 15.5C19.9252 16.362 19.5794 17.1886 18.9638 17.7981C18.3483 18.4076 17.5135 18.75 16.643 18.75C15.7725 18.75 14.9377 18.4076 14.3222 17.7981C13.7066 17.1886 13.3608 16.362 13.3608 15.5C13.3608 14.638 13.7066 13.8114 14.3222 13.2019C14.9377 12.5924 15.7725 12.25 16.643 12.25ZM20.9098 12.0875C20.9098 12.303 20.8234 12.5097 20.6695 12.662C20.5156 12.8144 20.3069 12.9 20.0893 12.9C19.8716 12.9 19.6629 12.8144 19.5091 12.662C19.3552 12.5097 19.2687 12.303 19.2687 12.0875C19.2687 11.872 19.3552 11.6653 19.5091 11.513C19.6629 11.3606 19.8716 11.275 20.0893 11.275C20.3069 11.275 20.5156 11.3606 20.6695 11.513C20.8234 11.6653 20.9098 11.872 20.9098 12.0875ZM16.643 10.3C15.019 10.3 14.7538 10.3046 13.9982 10.3377C13.4836 10.3618 13.1383 10.43 12.818 10.5535C12.5331 10.6627 12.3276 10.7933 12.109 11.0104C11.9036 11.207 11.7456 11.447 11.6469 11.7124C11.5222 12.0309 11.4532 12.3722 11.4296 12.8812C11.3955 13.5988 11.3915 13.8496 11.3915 15.5C11.3915 17.1081 11.3961 17.3707 11.4296 18.1188C11.4539 18.6278 11.5228 18.9703 11.6469 19.2869C11.7585 19.5696 11.8898 19.7731 12.1077 19.9889C12.3289 20.2073 12.5344 20.3379 12.8167 20.4458C13.1409 20.57 13.4862 20.6389 13.9982 20.6623C14.7229 20.6961 14.9763 20.7 16.643 20.7C18.267 20.7 18.5322 20.6954 19.2878 20.6623C19.8011 20.6382 20.147 20.57 20.4674 20.4471C20.7516 20.3373 20.9584 20.2066 21.1763 19.9908C21.3975 19.7718 21.5295 19.5683 21.6384 19.2888C21.7632 18.9684 21.8328 18.6258 21.8564 18.1188C21.8905 17.4012 21.8945 17.1503 21.8945 15.5C21.8945 13.8919 21.8899 13.6293 21.8564 12.8812C21.8321 12.3728 21.7632 12.0296 21.6384 11.7124C21.5395 11.4473 21.3818 11.2074 21.177 11.0104C20.9786 10.8069 20.7362 10.6505 20.468 10.5528C20.1464 10.4293 19.8011 10.3611 19.2878 10.3377C18.5631 10.3039 18.3097 10.3 16.643 10.3ZM16.643 9C18.4265 9 18.6491 9.0065 19.3488 9.039C20.0479 9.0715 20.5238 9.18005 20.9426 9.34125C21.3759 9.50635 21.7409 9.72995 22.1058 10.0907C22.4396 10.4156 22.6979 10.8087 22.8627 11.2425C23.0248 11.6565 23.1351 12.1284 23.1679 12.8207C23.1988 13.5136 23.2073 13.7339 23.2073 15.5C23.2073 17.266 23.2008 17.4864 23.1679 18.1793C23.1351 18.8715 23.0248 19.3428 22.8627 19.7575C22.6984 20.1916 22.44 20.5847 22.1058 20.9093C21.7776 21.2397 21.3807 21.4954 20.9426 21.6587C20.5245 21.8193 20.0479 21.9285 19.3488 21.961C18.6491 21.9915 18.4265 22 16.643 22C14.8595 22 14.6369 21.9935 13.9372 21.961C13.2381 21.9285 12.7622 21.8193 12.3434 21.6587C11.9051 21.4959 11.5081 21.2401 11.1802 20.9093C10.8463 20.5844 10.588 20.1914 10.4233 19.7575C10.2605 19.3434 10.1509 18.8715 10.1181 18.1793C10.0872 17.4864 10.0787 17.266 10.0787 15.5C10.0787 13.7339 10.0852 13.5136 10.1181 12.8207C10.1509 12.1278 10.2605 11.6572 10.4233 11.2425C10.5876 10.8084 10.8459 10.4153 11.1802 10.0907C11.5082 9.76 11.9052 9.50422 12.3434 9.34125C12.7622 9.18005 13.2374 9.0715 13.9372 9.039C14.6369 9.00845 14.8595 9 16.643 9Z" fill="#AAAAAA"/>
</svg>
