<svg width="61" height="61" viewBox="0 0 61 61" fill="none" xmlns="http://www.w3.org/2000/svg">
<path d="M0.505244 6.22421L4.51754 13.2453C4.65288 13.4826 4.87941 13.6542 5.14431 13.7207L8.88758 14.6565L21.7262 27.4951L23.1448 26.0769L10.1052 13.0378C9.97689 12.909 9.81597 12.8178 9.63978 12.7737L6.04299 11.8713L2.62692 5.88999L5.55569 2.96123L11.5395 6.38059L12.4423 9.97738C12.486 10.154 12.5776 10.3153 12.7059 10.4436L25.7455 23.4832L27.1637 22.0646L14.3251 9.226L13.3892 5.4848C13.3228 5.21948 13.1512 4.99254 12.9139 4.85679L5.89238 0.844909C5.50081 0.622095 5.00814 0.688114 4.68878 1.00624L0.676893 5.01854C0.354225 5.33584 0.28408 5.82933 0.505244 6.22421Z" fill="black"/>
<path d="M42.2065 20.4736L20.1401 42.5405L18.7215 41.1219L40.7883 19.0555L42.2065 20.4736Z" fill="#FB724C"/>
<path d="M16.278 43.3211C16.0965 43.0191 15.7705 42.8347 15.4181 42.8347H9.40008C9.04812 42.8347 8.72174 43.0191 8.5406 43.3211L5.53137 48.3361C5.34033 48.6538 5.34033 49.0512 5.53137 49.3693L8.5406 54.3842C8.72174 54.6859 9.04812 54.8707 9.40008 54.8707H15.4181C15.7705 54.8707 16.0965 54.6859 16.278 54.3842L19.2868 49.3693C19.4779 49.0512 19.4779 48.6538 19.2868 48.3361L16.278 43.3211ZM14.8508 52.8646H9.96784L7.56063 48.8527L9.96784 44.8404H14.8508L17.258 48.8527L14.8508 52.8646Z" fill="black"/>
<path d="M48.5179 24.7801C55.1425 24.8024 60.5313 19.4499 60.5535 12.8254C60.5569 11.8169 60.4331 10.8126 60.1851 9.83513C60.0514 9.29749 59.5071 8.97028 58.9695 9.10397C58.7929 9.14812 58.632 9.23931 58.5033 9.36763L52.2595 15.6072L47.3056 13.9564L45.6535 9.0037L51.8972 2.75873C52.2888 2.36674 52.2884 1.73172 51.8964 1.34015C51.7673 1.211 51.6047 1.1194 51.4268 1.07566C45.0024 -0.551291 38.476 3.33763 36.8491 9.76168C36.6019 10.7363 36.4785 11.7381 36.4818 12.7437C36.4843 13.5334 36.5656 14.3207 36.7257 15.0939L14.7591 37.0601C13.9859 36.9004 13.1986 36.8191 12.4093 36.8162C5.76159 36.8162 0.372803 42.205 0.372803 48.8527C0.372803 55.5 5.76159 60.8888 12.4093 60.8888C19.0566 60.8888 24.4453 55.5 24.4453 48.8527C24.4429 48.0629 24.3612 47.2757 24.2015 46.5024L29.4603 41.2436L31.7602 43.5435C32.1522 43.9351 32.7868 43.9351 33.1788 43.5435L33.6802 43.0418C34.12 42.6048 34.8309 42.6048 35.2708 43.0418C35.7102 43.48 35.7111 44.1913 35.2729 44.6308C35.2724 44.6312 35.2716 44.632 35.2708 44.6328L34.7695 45.1342C34.3779 45.5258 34.3779 46.1608 34.7695 46.5523L46.7346 58.5174C49.8816 61.6934 55.0071 61.7165 58.1831 58.5694C61.3586 55.4224 61.3817 50.2964 58.2346 47.1209C58.2177 47.1036 58.2004 47.0863 58.1831 47.0689L46.218 35.1043C45.8264 34.7127 45.1914 34.7127 44.7998 35.1043L44.2985 35.6056C43.8582 36.043 43.1477 36.043 42.7074 35.6056C42.2684 35.1674 42.2671 34.456 42.7053 34.017C42.7062 34.0162 42.707 34.0158 42.7074 34.0149L43.2092 33.5132C43.6007 33.1216 43.6007 32.4866 43.2092 32.095L40.9092 29.7951L46.168 24.5363C46.9413 24.696 47.7286 24.7777 48.5179 24.7801ZM52.4588 58.883C51.7301 58.8818 51.0076 58.7502 50.3256 58.4939L58.1591 50.66C59.3413 53.8045 57.7506 57.3118 54.6061 58.4939C53.9199 58.7518 53.1924 58.8838 52.4588 58.883ZM41.0957 32.8142C39.985 34.1391 40.1591 36.1139 41.484 37.2243C42.6484 38.2001 44.3455 38.1993 45.5087 37.2214L56.7649 48.4875C56.887 48.6101 57.0013 48.7392 57.1119 48.8704L48.536 57.4463C48.4044 57.3361 48.2753 57.2218 48.1527 57.0993L36.8878 45.8336C37.9986 44.5087 37.8245 42.5339 36.4996 41.4235C35.3352 40.4473 33.6377 40.4485 32.4745 41.426L30.8698 39.8213L39.4906 31.2133L41.0957 32.8142ZM45.146 22.7261L22.3922 45.4754C22.1425 45.7246 22.0423 46.0865 22.1273 46.4286C23.5033 51.8326 20.2379 57.3291 14.8334 58.7048C9.42935 60.0808 3.93287 56.8154 2.55679 51.4109C1.18112 46.0069 4.44658 40.5104 9.85105 39.1343C11.4858 38.7184 13.1986 38.7184 14.8334 39.1343C15.1755 39.2181 15.5365 39.1178 15.7866 38.8698L38.535 16.1201C38.7842 15.8709 38.8845 15.509 38.7987 15.1674C37.4321 9.82646 40.6538 4.38898 45.9947 3.02198C47.004 2.76409 48.0479 2.66507 49.0877 2.72985L43.7967 8.02291C43.5281 8.29111 43.434 8.68846 43.5541 9.04868L45.5598 15.0671C45.6601 15.3663 45.8953 15.6015 46.1949 15.7009L52.2133 17.7071C52.5731 17.8271 52.9705 17.7335 53.2391 17.4653L58.5301 12.1743C58.542 12.3657 58.5482 12.5551 58.5482 12.7437C58.5763 18.255 54.1316 22.7455 48.6202 22.774C47.7682 22.7781 46.919 22.6733 46.0938 22.4621C45.7517 22.3766 45.3898 22.4765 45.1406 22.7257H45.146V22.7261Z" fill="black"/>
<path d="M52.2372 51.1522L50.8186 52.5708L40.7887 42.5409L42.2069 41.1223L52.2372 51.1522Z" fill="#FB724C"/>
</svg>
