<svg width="61" height="61" viewBox="0 0 61 61" fill="none" xmlns="http://www.w3.org/2000/svg">
<path d="M31.3625 35.8275H51.4322C52.1246 35.8275 52.6866 35.2655 52.6866 34.5731C52.6866 33.8807 52.1246 33.3187 51.4322 33.3187H31.3625C30.6701 33.3187 30.1081 33.8807 30.1081 34.5731C30.1081 35.2655 30.6701 35.8275 31.3625 35.8275Z" fill="black"/>
<path d="M60.2126 24.5384V19.5209C60.2126 18.3092 59.8513 17.1878 59.2543 16.2269C59.2393 16.1968 59.2368 16.1617 59.2192 16.1341L51.4622 3.66581C50.3107 1.81438 48.3188 0.705566 46.1363 0.705566H14.0825C11.8974 0.705566 9.90793 1.81438 8.75643 3.66581L0.999459 16.1341C0.984407 16.1592 0.984407 16.1868 0.969355 16.2145C0.367264 17.1752 0.00354004 18.3041 0.00354004 19.5209V24.5384C0.00354004 26.5955 1.01451 28.4118 2.55243 29.5558C1.01451 30.6997 0.00354004 32.5135 0.00354004 34.5732V39.5906C0.00354004 41.6477 1.01451 43.4641 2.55243 44.6081C1.01451 45.7519 0.00354004 47.5657 0.00354004 49.6254V54.6429C0.00354004 58.0999 2.81831 60.9146 6.27528 60.9146H22.7223C23.4172 60.9146 23.9767 60.3526 23.9767 59.6602C23.9767 58.9678 23.4148 58.4058 22.7223 58.4058H6.27528C4.20053 58.4058 2.51221 56.7175 2.51221 54.6428V49.6254C2.51221 47.5482 4.20053 45.8624 6.27528 45.8624H27.2581C27.9505 45.8624 28.5125 45.3004 28.5125 44.608C28.5125 43.9156 27.9505 43.3536 27.2581 43.3536H6.27528C4.20053 43.3536 2.51221 41.6652 2.51221 39.5905V34.5732C2.51221 32.496 4.20053 30.8101 6.27528 30.8101H53.9407C56.0155 30.8101 57.7038 32.4984 57.7038 34.5732V39.5906C57.7038 40.1425 57.5683 40.697 57.3074 41.2313C57.0039 41.8535 57.2598 42.6035 57.8819 42.9096C58.5065 43.2157 59.2567 42.9599 59.5602 42.3352C59.9942 41.4522 60.2125 40.5314 60.2125 39.5906V34.5732C60.2125 32.5161 59.2015 30.6997 57.6636 29.5557C59.2016 28.4093 60.2126 26.5955 60.2126 24.5384ZM10.8863 4.99041C11.5763 3.87901 12.7703 3.21424 14.0799 3.21424H46.1337C47.4432 3.21424 48.6374 3.87901 49.3298 4.99041L54.5053 13.3068C54.3172 13.2867 54.1341 13.249 53.9409 13.249H6.27528C6.08207 13.249 5.89897 13.2867 5.71082 13.3042L10.8863 4.99041ZM57.7039 24.5384C57.7039 26.6131 56.0156 28.3014 53.9409 28.3014H6.27528C4.20053 28.3014 2.51221 26.6131 2.51221 24.5384V19.5209C2.51221 17.4437 4.20053 15.7578 6.27528 15.7578H53.9407C56.0155 15.7578 57.7038 17.4437 57.7038 19.5209V24.5384H57.7039Z" fill="black"/>
<path d="M5.021 52.1341C5.021 54.2088 6.70932 55.8972 8.78406 55.8972C10.8588 55.8972 12.5471 54.2088 12.5471 52.1341C12.5471 50.0594 10.8588 48.371 8.78406 48.371C6.70932 48.371 5.021 50.0569 5.021 52.1341ZM10.0383 52.1341C10.0383 52.8265 9.47635 53.3885 8.78394 53.3885C8.09154 53.3885 7.52967 52.8265 7.52967 52.1341C7.52967 51.4417 8.09166 50.8797 8.78406 50.8797C9.47647 50.8797 10.0383 51.4417 10.0383 52.1341Z" fill="black"/>
<path d="M51.4321 43.3537C51.2038 43.3537 50.9755 43.3663 50.7523 43.3863C48.6625 40.2503 45.1528 38.3362 41.3973 38.3362C35.557 38.3362 30.7378 42.7942 30.1658 48.4865C27.2782 49.0435 25.0907 51.5923 25.0907 54.6429C25.0907 58.0999 27.9055 60.9146 31.3625 60.9146H51.4322C56.274 60.9146 60.2126 56.976 60.2126 52.1341C60.2126 47.2922 56.274 43.3537 51.4321 43.3537ZM51.4321 58.406H31.3625C29.2877 58.406 27.5994 56.7176 27.5994 54.6429C27.5994 52.5682 29.2877 50.8798 31.3625 50.8798C32.0549 50.8798 32.6169 50.3178 32.6169 49.6254C32.6169 44.7837 36.5555 40.8449 41.3974 40.8449C44.5333 40.8449 47.4559 42.5735 49.0189 45.3555C49.2798 45.8197 49.7966 46.0655 50.3335 45.9752C50.6923 45.9125 51.056 45.8623 51.4323 45.8623C54.8893 45.8623 57.704 48.677 57.704 52.134C57.704 55.591 54.8892 58.406 51.4321 58.406Z" fill="#FB724C"/>
<path d="M51.4321 18.2665H31.3625C30.6701 18.2665 30.1081 18.8285 30.1081 19.5209C30.1081 20.2133 30.6701 20.7753 31.3625 20.7753H51.4322C52.1246 20.7753 52.6866 20.2133 52.6866 19.5209C52.6866 18.8285 52.1245 18.2665 51.4321 18.2665Z" fill="#FB724C"/>
<path d="M51.4321 23.284H31.3625C30.6701 23.284 30.1081 23.846 30.1081 24.5384C30.1081 25.2308 30.6701 25.7928 31.3625 25.7928H51.4322C52.1246 25.7928 52.6866 25.2308 52.6866 24.5384C52.6866 23.846 52.1245 23.284 51.4321 23.284Z" fill="black"/>
<path d="M8.78406 18.2665C6.70932 18.2665 5.021 19.9523 5.021 22.0295C5.021 24.1068 6.70932 25.7926 8.78406 25.7926C10.8588 25.7926 12.5471 24.1043 12.5471 22.0295C12.5471 19.9549 10.8587 18.2665 8.78406 18.2665ZM8.78406 23.2839C8.09166 23.2839 7.52967 22.722 7.52967 22.0295C7.52967 21.3371 8.09166 20.7752 8.78406 20.7752C9.47647 20.7752 10.0385 21.3371 10.0385 22.0295C10.0385 22.722 9.47647 23.2839 8.78406 23.2839Z" fill="black"/>
<path d="M5.021 37.0818C5.021 39.1565 6.70932 40.8449 8.78406 40.8449C10.8588 40.8449 12.5471 39.1565 12.5471 37.0818C12.5471 35.007 10.8588 33.3187 8.78406 33.3187C6.70932 33.3187 5.021 35.0046 5.021 37.0818ZM10.0383 37.0818C10.0383 37.7742 9.47635 38.3362 8.78394 38.3362C8.09154 38.3362 7.52967 37.7742 7.52967 37.0818C7.52967 36.3894 8.09166 35.8274 8.78406 35.8274C9.47647 35.8274 10.0383 36.3894 10.0383 37.0818Z" fill="#FB724C"/>
</svg>
